<svg width="20" height="28" viewBox="0 0 20 28" fill="none" xmlns="http://www.w3.org/2000/svg">
<path d="M4.162 28H0.535V9.397C0.535 6.719 1.393 4.535 3.109 2.845C4.851 1.155 6.996 0.309999 9.544 0.309999C12.352 0.309999 14.458 1.025 15.862 2.455C17.292 3.859 18.007 5.588 18.007 7.642C18.007 10.268 16.785 12.153 14.341 13.297V13.453C17.695 14.415 19.372 16.742 19.372 20.434C19.372 25.478 16.395 28 10.441 28H5.566V24.568H10.402C12.196 24.568 13.509 24.204 14.341 23.476C15.173 22.748 15.589 21.578 15.589 19.966C15.589 18.562 15.134 17.483 14.224 16.729C13.34 15.975 12.131 15.598 10.597 15.598H6.736V12.361H9.232C10.636 12.361 11.832 11.984 12.82 11.23C13.834 10.45 14.341 9.41 14.341 8.11C14.341 6.862 13.951 5.822 13.171 4.99C12.417 4.158 11.182 3.742 9.466 3.742C7.906 3.742 6.632 4.236 5.644 5.224C4.656 6.186 4.162 7.603 4.162 9.475V28Z" fill="#99B1DB"/>
<path d="M4.162 28V29H5.162V28H4.162ZM0.535 28H-0.465V29H0.535V28ZM3.109 2.845L2.41267 2.12724L2.40731 2.13251L3.109 2.845ZM15.862 2.455L15.1484 3.15559L15.1549 3.16214L15.1614 3.16856L15.862 2.455ZM14.341 13.297L13.9171 12.3913L13.341 12.661V13.297H14.341ZM14.341 13.453H13.341V14.2065L14.0653 14.4142L14.341 13.453ZM5.566 28H4.566V29H5.566V28ZM5.566 24.568V23.568H4.566V24.568H5.566ZM14.341 23.476L14.9995 24.2286L14.9995 24.2286L14.341 23.476ZM14.224 16.729L13.5751 17.4898L13.5805 17.4945L13.586 17.499L14.224 16.729ZM6.736 15.598H5.736V16.598H6.736V15.598ZM6.736 12.361V11.361H5.736V12.361H6.736ZM12.82 11.23L13.4267 12.025L13.4297 12.0226L12.82 11.23ZM13.171 4.99L12.43 5.66152L12.4357 5.66778L12.4415 5.67394L13.171 4.99ZM5.644 5.224L6.34168 5.94053L6.35111 5.9311L5.644 5.224ZM4.162 27H0.535V29H4.162V27ZM1.535 28V9.397H-0.465V28H1.535ZM1.535 9.397C1.535 6.95395 2.30777 5.03762 3.81069 3.55748L2.40731 2.13251C0.478226 4.03237 -0.465 6.48405 -0.465 9.397H1.535ZM3.80531 3.56274C5.35067 2.06351 7.24162 1.31 9.544 1.31V-0.690001C6.75038 -0.690001 4.35133 0.246489 2.41269 2.12726L3.80531 3.56274ZM9.544 1.31C12.1932 1.31 13.9974 1.98324 15.1484 3.15559L16.5756 1.75441C14.9186 0.0667549 12.5108 -0.690001 9.544 -0.690001V1.31ZM15.1614 3.16856C16.3946 4.37932 17.007 5.84888 17.007 7.642H19.007C19.007 5.32712 18.1894 3.33867 16.5626 1.74144L15.1614 3.16856ZM17.007 7.642C17.007 8.79522 16.7406 9.7266 16.2514 10.4813C15.7611 11.2377 15.0039 11.8826 13.9171 12.3913L14.7649 14.2027C16.1221 13.5674 17.198 12.6978 17.9296 11.5692C18.6624 10.4389 19.007 9.11478 19.007 7.642H17.007ZM13.341 13.297V13.453H15.341V13.297H13.341ZM14.0653 14.4142C15.5747 14.8472 16.6222 15.5598 17.303 16.5044C17.9877 17.4545 18.372 18.7376 18.372 20.434H20.372C20.372 18.4384 19.9178 16.712 18.9255 15.3351C17.9293 13.9527 16.4613 13.0208 14.6167 12.4918L14.0653 14.4142ZM18.372 20.434C18.372 22.7544 17.6951 24.327 16.4929 25.3455C15.2589 26.3909 13.3006 27 10.441 27V29C13.5354 29 16.0426 28.3481 17.7856 26.8715C19.5604 25.368 20.372 23.1576 20.372 20.434H18.372ZM10.441 27H5.566V29H10.441V27ZM6.566 28V24.568H4.566V28H6.566ZM5.566 25.568H10.402V23.568H5.566V25.568ZM10.402 25.568C12.2967 25.568 13.9012 25.1896 14.9995 24.2286L13.6825 22.7234C13.1168 23.2184 12.0953 23.568 10.402 23.568V25.568ZM14.9995 24.2286C16.1327 23.237 16.589 21.7315 16.589 19.966H14.589C14.589 21.4245 14.2133 22.259 13.6825 22.7234L14.9995 24.2286ZM16.589 19.966C16.589 18.3263 16.0451 16.9393 14.862 15.959L13.586 17.499C14.2229 18.0267 14.589 18.7977 14.589 19.966H16.589ZM14.8729 15.9682C13.7568 15.0162 12.2917 14.598 10.597 14.598V16.598C11.9703 16.598 12.9232 16.9338 13.5751 17.4898L14.8729 15.9682ZM10.597 14.598H6.736V16.598H10.597V14.598ZM7.736 15.598V12.361H5.736V15.598H7.736ZM6.736 13.361H9.232V11.361H6.736V13.361ZM9.232 13.361C10.8254 13.361 12.2421 12.929 13.4267 12.025L12.2133 10.435C11.4219 11.039 10.4466 11.361 9.232 11.361V13.361ZM13.4297 12.0226C14.6944 11.0498 15.341 9.71457 15.341 8.11H13.341C13.341 9.10543 12.9736 9.85024 12.2103 10.4374L13.4297 12.0226ZM15.341 8.11C15.341 6.63404 14.8714 5.34161 13.9005 4.30606L12.4415 5.67394C13.0306 6.30239 13.341 7.08996 13.341 8.11H15.341ZM13.912 4.31848C12.8875 3.18802 11.3157 2.742 9.466 2.742V4.742C11.0483 4.742 11.9465 5.12797 12.43 5.66152L13.912 4.31848ZM9.466 2.742C7.67458 2.742 6.13505 3.31874 4.93689 4.51689L6.35111 5.9311C7.12895 5.15326 8.13742 4.742 9.466 4.742V2.742ZM4.94638 4.50753C3.70384 5.71737 3.162 7.4326 3.162 9.475H5.162C5.162 7.7734 5.60816 6.65462 6.34162 5.94047L4.94638 4.50753ZM3.162 9.475V28H5.162V9.475H3.162Z" fill="#ECECEC"/>
</svg>
