<svg width="37" height="46" viewBox="0 0 37 46" fill="none" xmlns="http://www.w3.org/2000/svg">
<g filter="url(#filter0_d_137_106)">
<path d="M12.7261 37H9.09909V18.397C9.09909 15.719 9.95709 13.535 11.6731 11.845C13.4151 10.155 15.5601 9.31 18.1081 9.31C20.9161 9.31 23.0221 10.025 24.4261 11.455C25.8561 12.859 26.5711 14.588 26.5711 16.642C26.5711 19.268 25.3491 21.153 22.9051 22.297V22.453C26.2591 23.415 27.9361 25.742 27.9361 29.434C27.9361 34.478 24.9591 37 19.0051 37H14.1301V33.568H18.9661C20.7601 33.568 22.0731 33.204 22.9051 32.476C23.7371 31.748 24.1531 30.578 24.1531 28.966C24.1531 27.562 23.6981 26.483 22.7881 25.729C21.9041 24.975 20.6951 24.598 19.1611 24.598H15.3001V21.361H17.7961C19.2001 21.361 20.3961 20.984 21.3841 20.23C22.3981 19.45 22.9051 18.41 22.9051 17.11C22.9051 15.862 22.5151 14.822 21.7351 13.99C20.9811 13.158 19.7461 12.742 18.0301 12.742C16.4701 12.742 15.1961 13.236 14.2081 14.224C13.2201 15.186 12.7261 16.603 12.7261 18.475V37Z" fill="white"/>
<path d="M12.7261 37V38H13.7261V37H12.7261ZM9.09909 37H8.09909V38H9.09909V37ZM11.6731 11.845L10.9768 11.1272L10.9714 11.1325L11.6731 11.845ZM24.4261 11.455L23.7125 12.1556L23.719 12.1621L23.7255 12.1686L24.4261 11.455ZM22.9051 22.297L22.4811 21.3913L21.9051 21.661V22.297H22.9051ZM22.9051 22.453H21.9051V23.2065L22.6294 23.4142L22.9051 22.453ZM14.1301 37H13.1301V38H14.1301V37ZM14.1301 33.568V32.568H13.1301V33.568H14.1301ZM22.9051 32.476L23.5636 33.2286L22.9051 32.476ZM22.7881 25.729L22.1391 26.4898L22.1446 26.4945L22.1501 26.499L22.7881 25.729ZM15.3001 24.598H14.3001V25.598H15.3001V24.598ZM15.3001 21.361V20.361H14.3001V21.361H15.3001ZM21.3841 20.23L21.9908 21.025L21.9938 21.0226L21.3841 20.23ZM21.7351 13.99L20.9941 14.6615L20.9998 14.6678L21.0056 14.6739L21.7351 13.99ZM14.2081 14.224L14.9058 14.9405L14.9152 14.9311L14.2081 14.224ZM12.7261 36H9.09909V38H12.7261V36ZM10.0991 37V18.397H8.09909V37H10.0991ZM10.0991 18.397C10.0991 15.954 10.8719 14.0376 12.3748 12.5575L10.9714 11.1325C9.04231 13.0324 8.09909 15.484 8.09909 18.397H10.0991ZM12.3694 12.5627C13.9148 11.0635 15.8057 10.31 18.1081 10.31V8.31C15.3145 8.31 12.9154 9.24649 10.9768 11.1273L12.3694 12.5627ZM18.1081 10.31C20.7572 10.31 22.5615 10.9832 23.7125 12.1556L25.1397 10.7544C23.4827 9.06676 21.0749 8.31 18.1081 8.31V10.31ZM23.7255 12.1686C24.9587 13.3793 25.5711 14.8489 25.5711 16.642H27.5711C27.5711 14.3271 26.7535 12.3387 25.1267 10.7414L23.7255 12.1686ZM25.5711 16.642C25.5711 17.7952 25.3047 18.7266 24.8155 19.4813C24.3251 20.2377 23.568 20.8826 22.4811 21.3913L23.329 23.2027C24.6862 22.5674 25.762 21.6978 26.4937 20.5692C27.2264 19.4389 27.5711 18.1148 27.5711 16.642H25.5711ZM21.9051 22.297V22.453H23.9051V22.297H21.9051ZM22.6294 23.4142C24.1388 23.8472 25.1863 24.5598 25.8671 25.5044C26.5518 26.4545 26.9361 27.7376 26.9361 29.434H28.9361C28.9361 27.4384 28.4819 25.712 27.4896 24.3351C26.4934 22.9527 25.0254 22.0208 23.1808 21.4918L22.6294 23.4142ZM26.9361 29.434C26.9361 31.7544 26.2591 33.327 25.0569 34.3455C23.823 35.3909 21.8647 36 19.0051 36V38C22.0995 38 24.6067 37.3481 26.3497 35.8715C28.1245 34.368 28.9361 32.1576 28.9361 29.434H26.9361ZM19.0051 36H14.1301V38H19.0051V36ZM15.1301 37V33.568H13.1301V37H15.1301ZM14.1301 34.568H18.9661V32.568H14.1301V34.568ZM18.9661 34.568C20.8607 34.568 22.4653 34.1896 23.5636 33.2286L22.2466 31.7234C21.6808 32.2184 20.6594 32.568 18.9661 32.568V34.568ZM23.5636 33.2286C24.6968 32.237 25.1531 30.7315 25.1531 28.966H23.1531C23.1531 30.4245 22.7774 31.259 22.2466 31.7234L23.5636 33.2286ZM25.1531 28.966C25.1531 27.3263 24.6092 25.9393 23.4261 24.959L22.1501 26.499C22.787 27.0267 23.1531 27.7977 23.1531 28.966H25.1531ZM23.437 24.9682C22.3209 24.0162 20.8558 23.598 19.1611 23.598V25.598C20.5344 25.598 21.4873 25.9338 22.1391 26.4898L23.437 24.9682ZM19.1611 23.598H15.3001V25.598H19.1611V23.598ZM16.3001 24.598V21.361H14.3001V24.598H16.3001ZM15.3001 22.361H17.7961V20.361H15.3001V22.361ZM17.7961 22.361C19.3895 22.361 20.8062 21.929 21.9908 21.025L20.7774 19.435C19.986 20.039 19.0107 20.361 17.7961 20.361V22.361ZM21.9938 21.0226C23.2585 20.0498 23.9051 18.7146 23.9051 17.11H21.9051C21.9051 18.1054 21.5377 18.8502 20.7744 19.4374L21.9938 21.0226ZM23.9051 17.11C23.9051 15.634 23.4355 14.3416 22.4646 13.3061L21.0056 14.6739C21.5947 15.3024 21.9051 16.09 21.9051 17.11H23.9051ZM22.4761 13.3185C21.4516 12.188 19.8798 11.742 18.0301 11.742V13.742C19.6123 13.742 20.5106 14.128 20.9941 14.6615L22.4761 13.3185ZM18.0301 11.742C16.2387 11.742 14.6991 12.3187 13.501 13.5169L14.9152 14.9311C15.693 14.1533 16.7015 13.742 18.0301 13.742V11.742ZM13.5105 13.5075C12.2679 14.7174 11.7261 16.4326 11.7261 18.475H13.7261C13.7261 16.7734 14.1722 15.6546 14.9057 14.9405L13.5105 13.5075ZM11.7261 18.475V37H13.7261V18.475H11.7261Z" fill="#ECECEC"/>
</g>
<defs>
<filter id="filter0_d_137_106" x="0.0990601" y="0.310059" width="36.837" height="45.6899" filterUnits="userSpaceOnUse" color-interpolation-filters="sRGB">
<feFlood flood-opacity="0" result="BackgroundImageFix"/>
<feColorMatrix in="SourceAlpha" type="matrix" values="0 0 0 0 0 0 0 0 0 0 0 0 0 0 0 0 0 0 127 0" result="hardAlpha"/>
<feMorphology radius="5" operator="dilate" in="SourceAlpha" result="effect1_dropShadow_137_106"/>
<feOffset/>
<feGaussianBlur stdDeviation="2"/>
<feComposite in2="hardAlpha" operator="out"/>
<feColorMatrix type="matrix" values="0 0 0 0 0.4375 0 0 0 0 0.4375 0 0 0 0 0.4375 0 0 0 0.25 0"/>
<feBlend mode="normal" in2="BackgroundImageFix" result="effect1_dropShadow_137_106"/>
<feBlend mode="normal" in="SourceGraphic" in2="effect1_dropShadow_137_106" result="shape"/>
</filter>
</defs>
</svg>
