<svg width="19" height="20" viewBox="0 0 19 20" fill="none" xmlns="http://www.w3.org/2000/svg">
<g filter="url(#filter0_d_294_602)">
<path d="M15.3991 6.298C15.3991 6.394 15.3031 6.442 15.1111 6.442C14.9191 6.442 14.8171 6.388 14.8051 6.28C14.6611 5.5 14.4151 5.056 14.0671 4.948C13.4551 4.792 12.4531 4.702 11.0611 4.678C10.8211 4.69 10.6591 4.756 10.5751 4.876C10.4911 4.996 10.4491 5.206 10.4491 5.506V13.822C10.4491 14.878 10.5751 15.406 10.8271 15.406H11.8711C11.9671 15.406 12.0151 15.508 12.0151 15.712C12.0151 15.904 11.9671 16 11.8711 16L9.60315 15.982L7.08315 16.036C6.98715 16.036 6.93915 15.934 6.93915 15.73C6.93915 15.526 6.98715 15.424 7.08315 15.424H7.85715C8.15715 15.424 8.35515 15.37 8.45115 15.262C8.54715 15.142 8.59515 14.92 8.59515 14.596V6.262C8.59515 5.206 8.47515 4.678 8.23515 4.678H7.85715C6.66915 4.678 5.70915 4.768 4.97715 4.948C4.62915 5.056 4.38315 5.5 4.23915 6.28C4.22715 6.388 4.12515 6.442 3.93315 6.442C3.74115 6.442 3.64515 6.394 3.64515 6.298L3.78915 3.544C3.78915 3.436 3.88515 3.382 4.07715 3.382C4.26915 3.382 4.36515 3.436 4.36515 3.544V3.886C5.18115 3.91 5.93115 3.922 6.61515 3.922H11.9971C12.9691 3.922 13.8631 3.91 14.6791 3.886V3.544C14.6791 3.436 14.7751 3.382 14.9671 3.382C15.1591 3.382 15.2551 3.436 15.2551 3.544L15.3991 6.298Z" fill="black"/>
</g>
<defs>
<filter id="filter0_d_294_602" x="0.645142" y="0.381836" width="17.754" height="18.6543" filterUnits="userSpaceOnUse" color-interpolation-filters="sRGB">
<feFlood flood-opacity="0" result="BackgroundImageFix"/>
<feColorMatrix in="SourceAlpha" type="matrix" values="0 0 0 0 0 0 0 0 0 0 0 0 0 0 0 0 0 0 127 0" result="hardAlpha"/>
<feOffset/>
<feGaussianBlur stdDeviation="1.5"/>
<feComposite in2="hardAlpha" operator="out"/>
<feColorMatrix type="matrix" values="0 0 0 0 0 0 0 0 0 0 0 0 0 0 0 0 0 0 0.25 0"/>
<feBlend mode="normal" in2="BackgroundImageFix" result="effect1_dropShadow_294_602"/>
<feBlend mode="normal" in="SourceGraphic" in2="effect1_dropShadow_294_602" result="shape"/>
</filter>
</defs>
</svg>
